<?xml version="1.0" encoding="UTF-8"?>
<svg version="1.1" viewBox="0 0 2000 2000" width="1280" height="1280" xmlns="http://www.w3.org/2000/svg">
<path transform="translate(0)" d="m0 0h2e3v2e3h-2e3z" fill="#09293C"/>
<path transform="translate(1766,426)" d="m0 0 9 2v2l10 2 12 6 10 4 24 11 9 3v2l6 2 9 4 13 6v-2h-2l-4-11-3-5-2-9h-2l1-4 7 3 13 4 7 4 10 4 9 4 5 2v2l9 3 27 14 11 6 14 8 19 11 13 8v1488h-2e3v-1448l2 3 8 44 4 18 1 1 2 10 10 34 3 6 4 14 2 3 4 13 6 15 5 11 5 13 5 10 4 10 5 9 4 10 4 9v2h2l11 23 5 9 2 6h2l6 12 8 14 11 19v2h2l6 11 6 9 5 9 11 16v3h2v3h2l8 13 7 10 2 5h2l14 21 8 10 3 5v2h2l13 18 9 12v2h2l9 12 9 11 10 13 11 13 8 10 11 13 9 11 12 13 9 11 7 7 7 8 9 10 4 6 2 1 5 37 7 37 8 31 1 1 2 10 4 10 6 21 4 9 2 7 4 10 1 1v5h2l5 14 4 7 5 13 10 20 10 19 10 18 7 10 4 8 3 3 5 9 8 11 9 13 10 13 8 10 10 13 12 13 7 8 18 20 6 5 6 7 16 14v2l4 2 11 10 3 2v2l4 2 14 11 13 10 2 1v2l5 2 5 4 8 5v2l5 2 14 9 10 7 9 5 11 7 11 6 27 14 14 7 7 3 11 5 11 4 12 5 9 3v2h5l9 4 18 5 7 3 16 4 9 3 33 8 34 6 37 5 19 2 41 1h44l37-3 54-8 24-5 9-3h11l9 4 9 3 14 4 8 3 13 5 13 4 15 5 7 2 21 5 5 2 10 2 8 3 53 12 41 7 47 6 25 2h69l29-3 35-6 25-6 12-4 10-4 10-3 9-4 9-5 10-4h2v-2l8-4 11-7 3-1v-2l4-1v-2l11-8 10-9h2l2-4 4-2 2-4 6-7h2l2-5 10-13 6-9 4-7 6-11 3-7 6-15 4-11 2-7 7-30 3-23 1-14v-34l-3-37-5-29-7-33-12-42-3-9-6-17-3-9-2-3-2-7-5-12-8-20-13-29-22-44-6-11-3-6v-2h-2l-8-16-14-25-6-9v-12l3-35 1-17v-57l-2-36-4-33-8-45-6-26-9-32-15-44-3-5-5-14-5-12-4-7v-4h-2l-1-7h-2l-5-12v-2h-2l-10-21-1-3 4-23 6-48 4-40 2-34 1-23 3 3 11 30 2 7 4 10 6 26 1 8 2-1 5-13 4-8 1-4h2v-4h2l3 91 1 20 4-1 2-4 6-7h2l2-4 5-1 2 46v46l-2 55-1 10 4-4 12-20 6-11 8-15 5-10 5-14 3-6 6-16 2-9 3-8 5-21 3-21 1-13v-27l-3-26-5-21-4-13v-3h-2l-3-10-1-5h-2l-2-9h-2l-6-15h-2l-1-5h-2l-1-5h-2l-4-8-6-8v-2h-2v-3h-2l-4-6-6-8-5-5-6-7-8-7-5-5v-2l-4-2-12-10v-2l5 2 16 12 3 2v2l4 2 14 12 6 5v2l4 2 15 15 7 8 5 6v2h2l6 7 4 6v-31l5 5 5 8 7 12v2h2l2 7h2v4h2l6 12v2h2l6 13v2h2l6 12v3h2l6 14h3l7-24h3l9 16 11 18 17 33 6 12v3h2l2 9h2l4 10 1 5h2l1 7h2l4 12v2h2l4 10 1 5h3v-11l3-30v-42l-3-28-4-22-4-15-7-20-5-12-4-8-10-19-6-8-3-5-10-13-12-13-8-8v-2l-4-2-11-9-3-2v-2l-5-2-14-10-22-13-16-8-11-4-9-4-7-3-15-5-7-2-17-5v-1l13-1h40l18 1 6 2 24 4h4l-4-6-11-13-4-5-2-1z" fill="#FDFDFD"/>
<path transform="translate(0)" d="m0 0h2e3v510h-2l-8-13-10-14-8-11v-2h-2l-12-16-10-11-7-8-5-5v-2l-4-2-4-4v-2l-4-2-10-10-14-11-13-10-14-9-11-6-14-7-14-5-9-4-22-5-16-2h-32l-27 4-12 3-7 2-21 8-9 4-6 2v2l-10 4-12 7-4 3h-2l2-5h2l2-6 4-6h2l2-4 11-15 21-21 1-3h-20l1-3 11-6h2v-2l16-8 9-5 21-11 1-2h-3v-2h-5v-2l-7-1v-2h-2l2-4 6-3 13-8 23-11 16-8 14-5 11-5 6-1v-2l-27-3h-42l-22 3-17 4-11 4-12 5-11 6-3 1v2l-10 7-8 8h-2l-2 4-11 15-2 5h-2l-1 4-8 16-6 16-5 14-1 4h-2l-5-14-5-12-10-21-9-15-14-19-15-15-13-9-16-8-11-4-8-2-18-4-10-1h-32l-22 3-26 6-7 2-5 1v2l12 1 8 3 14 4 13 3 10 4 10 3 12 5 17 8-2 4-10 6-2 3 9 3 7 2v2l6 1 10 4 5 1v2l8 1 11 5 8 4 1 4h-14l-14-9-5-2v-2l-10-3v-2l-6-2-9-4-10-3-8-3-17-4-10-1h-28l-18 3-19 5-16 6-15 7-14 8h-2v2l-10 6-21 16-7 6h-2l-1 3-8 7-5 4 8-1 15-3 13-3 26-5 31-4 12-1h15l-2 4-6 9-3 4h-2v2l52-6 21-2h12v2l-7 3-6 4h-2v2l-6 3v1l31 4 30 7 8 3 19 7 7 3 12 6 4 1 6 6-7-1-5-2v-2l-5-1-35-12-30-7-24-5-30-3h-26l-32 3-32 8-19 7-7 4-10 4-15 9-12 8-13 10h-2v2l-8 7-4 4-10-2-42-11-41-8-27-4-33-3-18-1h-66l-40 3-30 4-43 8-32 8-11 3-7 2-42 14-29 12-14 7-8 3-32 16-25 14-13 8-20 13-14 10-11 8-21 16-26 22-16 15-13 12-5 5-14 15-12 13-11 13-6 8h-2l-2 5-7 8-1 2h-2l-2 5-11 15-8 11-7 11-10 15-6 11h-2l-3 9-7 12-10 19-8 16-5 13-7 14-3 7-2 6-9 23-3 9-3 13-3 8-4-2-6-8-7-10-2-5h-2l-8-12-7-11-6-9-5-7-4-7-8-13-7-10-6-12-5-7-8-16-3-4-8-16-9-17-13-28-4-8-1-7h-2l-4-11-4-9-2-7-12-36-8-29-5-26-4-30-1-12v-32l5-38 6-21 5-10 3-7 5-10 9-14 6-8 12-13 9-9 11-8 5-2v-2l16-9 19-9 14-5 10-4 32-6 29-4h9l7 11v2h2l4 8 7 11 9 4 22 5 34 4 38 3 51 2 74 1 10 15 18 28 20 30 3 5v2l29-6 11-2 7-13 4-11 8-16 7-16 2-5 4-8 2-6 86-5 46-4 59-7 24-4 18-4 1-1 11-2 7-2 13-5 11-8 3-3v-6l-6-8-9-6-8-4-7-3-13-5-22-7-8-3-32-8-17-3-13-3-32-4-29-2h-33l-26 2-35 5-31 5-49 6-6-1-17-8-36-18-4-1v-2l-5-1-7-4-4-1v-2l-5-1-16-8-32-15-41-2 7 8 9 9 7 8 21 21 7 8 11 11 6 7-1 3-41 3-24 3h-8l-2-1v-2l-6-3v-2l-4-2-5-4-1-3 13 2 29 7-5-2-29-8-16-4-10-8-11-9-14-12-9-7v-2l-4-2-11-9-9-7v-2l-5-2-35-8-47-9-5-1 16 24 7 10 3 5v2h2l9 14v1h-11l-14-1h-65l-36 3-25 4-31 7-8 3-11 3-8 3-20 8-16 8-15 9-11 8-13 10-10 9-3 3h-2v2h-2l-2 4-9 10-8 10-4 7-7 10-5 9-7 14-10 25-6 25-4 18-2 2z" fill="#FDFDFD"/>
<path transform="translate(994,465)" d="m0 0h55l44 3 29 4 40 8 16 3 4 2-2 5-8 14-12 23-12 26-10 26v4l8-7 13-11 35-28 12-9 19-14 11-7 4-3 10 3 15 6 29 13 9 5 6 2-5 5-12 9-11 10-8 7-21 21-12 16-11 16-7 11-11 23-9 25-5 19-5 25-3 31v16l3 36 3 23 3 12 2 10 3-3 3-10 7-15 12-29 10-23 8-16 7-15 5-9 7-14 8-13 7-10 3-6 3-2 13 26v2h3l2-6 10-20h2l3-9 8-16 14-24 6-11 10-17 5-9 4-2v36l4-2 3-5 4-4 7-8 6-7 8-7 4-5 4-1 10 9 3 1 5 5 10 8-2 5-9 17-6 13-7 23-5 22-2 11-1 11v48l3 27 6 30 7 27 11 32 11 25 5 10 2 1v-41l2-33 3-42 4-32 4-16 7 5 8 10 5 4v-10l7-60 3-24 1-3 4 2 2 4 4 2 2 5h2l9 12v2l3 1 3 5 4 5 10 14 8 12v2h2l5 9 8 13 1 2-1 9-7 28-5 19-4 11-3 12-15 44-14 35-16 36-10 21-12 22-6 10-6 12-14 23-14 21-11 16-12 16-14 18-8 9-9 11-14 15-27 27-8 7-14 12-16 13-20 15-24 16-20 12-19 11-26 13-13 6h-31l-1-1-27-1h-52l-5-1v-2l-6-2-24-13-22-15-17-13-11-10-8-7-16-16-7-8-10-12-11-15-10-15-12-20-8-16-6-11-4-11-6-13-8-27-3-7-4-15-9-42-4-26-2-17-2-31v-62l4 1 7 8 8 9 11 16 6 10 6 11 8 18 3 4 1-1 2-15 3-2 4 9 5 27 2 8 3 20 2 3h2l1-4 3-4h2l1-4h3l2 6 4 21 2 7 2 17 2 10 3 34v2l2-1 5-15 5-12 7-33 3-26v-16l-4-28-5-17-5-12-7-12-8-11-9-11-14-14-11-9-16-12-5-3v-1h7l16 5 29 11 12 6 11 6 7 4-4-13-1-6 4 1 8 7 10 8 7 8 10 9 15 15h1l2-18h3l8 6v2l4 2 10 9v2h2v2h2v2h2v2l4 2 7 7 9 11 5 6v2l3 1 5 7 5 5 6 8-2-20-5-25-8-24-7-15-9-15-10-13-4-5-3-2v-2h-2l-5-5-8-7-7-4-8-5-9-5-16-6-19-5-18-3-19-2h-15l-30 2-25 4-4-1 7-6 16-9 21-9 21-7 15-3 1-1-13-8 4-2h53l-2-4-6-4v-4h48l22 2h12l-5-4-25-14-21-9-13-4-16-3h-21l-18 2-18 5-20 11-17 11-6 3h-5l2-5 20-11 17-7v-3l-7-3 2-4 19-10 16-6 21-8 4-1-3-2-16-2h-27l-18 3-13 3-15 6-13 8-10 9-7 8-9 14-12 24-5 17-2-1-9-19-6-10-9-11-9-8-10-6-10-4-16-4-7-1h-39l-25 4-3 2 36 11 15 5 10 5-1 4-7 3 3 3 28 10 8 3v2l2 1-3 2-8 1 5 5 12 9 6 7 6 5 4 5-3 1-7-4-27-9-24-5h-28l-18 4-20 7-9 5-13 8-9 7-13 12-13 13-11 14-11 15-8 13-7 11 8-4 5-4 20-12 17-10 36-18h3l-3 10-3 7 5-1 17-9 40-20 1 3-8 9-1 2h-2v4l26-5 28-2 27 1v3l-12 10-6 4-10 10-8 7-11 11-11 14-9 13-9 16-6 16-5 20-2 12v34l4 24 8 30 4 11 6 12h1l3-36 6-38 5-22 4 1 8 8h1l3-22 5-25 2-9 1-9 1-2h2l4 8 1 6 4-4 7-16 10-20 14-22 7-9 6-8 6-7h2l-2 12-6 33-3 29v50l3 32 7 40 3 14 3 9 3 12 5 14 3 9 7 20 4 10 7 15v3h2l9 19 13 23 9 14v3h2l11 16 12 16 5 7 5 5 7 8v2h2l7 8 14 14v2l-25 6-33 10-30 12-12 6-11 4-4 2h-5l-15-10v-2l-5-2-11-8-13-9v-2l-4-1v-2l-4-1v-2l-5-2-2-1v-2l-5-2-4-3v-2l-5-2-17-13-14-11-10-8-14-11-13-11-3-2v-2l-5-2-9-8-11-9-11-10-11-9-14-13-11-9-9-9-8-7-11-10-4-4v-2l-4-2-12-11-17-17-4-3v-2l-4-2-4-4v-2h-2v-2h-2l-6-7-2-1v-2l-4-2v-2h-2l-7-8-14-14-7-8-16-17-9-10-1-3h-2l-9-11-6-7-9-11-13-14-4-6-5-6-6-6v-8l7-24 8-28 12-34 14-33 11-23 6-10 3-7 9-16 11-18 9-14 14-20 10-13 11-14 12-14 9-10 11-12 25-25 8-7 13-12 14-11 16-13 17-12 27-18 20-12 24-13 22-11 24-10 26-10 33-11 28-8 25-6 39-6 29-3z" fill="#F18F42"/>
<path transform="translate(1401,594)" d="m0 0 4 2 8 7 3 1 5 5 10 8-2 5-9 17-6 13-7 23-5 22-2 11-1 11v48l3 27 6 30 7 27 11 32 11 25 5 10 2 1v-41l2-33 3-42 4-32 4-16 7 5 8 10 5 4v-10l7-60 3-24 1-3 4 2 2 4 4 2 2 5h2l9 12v2l3 1 3 5 4 5 10 14 8 12v2h2l5 9 8 13 1 2-1 9-7 28-5 19-4 11-3 12-15 44-14 35-16 36-10 21-12 22-6 10-6 12-14 23-14 21-11 16-12 16-14 18-8 9-9 11-14 15-27 27-8 7-14 12-16 13-20 15-24 16-20 12-19 11-26 13-13 6h-31l-1-1-27-1h-52l-5-1v-2l-6-2-24-13-22-15-17-13-11-10-8-7-16-16-7-8-10-12-11-15-10-15-12-20-8-16-6-11-4-11-6-13-8-27-3-7-4-15-9-42-4-26-2-17-2-31v-62l4 1 7 8 8 9 11 16 6 10 6 11 8 18 3 4 1-1 2-15 3-2 4 9 5 27 2 8 3 20 2 3h2l1-4 3-4h2l1-4h3l2 6 4 21 2 7 2 17 2 10 3 34v2l2-1 5-15 5-12 7-33 3-26v-16l-4-28-5-17-5-12-7-12-8-11-9-11-14-14-11-9-16-12-5-3v-1h7l16 5 29 11 12 6 11 6 7 4-4-13-1-6 4 1 8 7 10 8 7 8 10 9 15 15h1l2-18h3l8 6v2l4 2 10 9v2h2v2h2v2h2v2l4 2 7 7 9 11 5 6v2l3 1 5 7 5 5 6 8-2-20-5-25-8-24-7-15-9-15-10-13-4-5-3-2v-2h-2l-5-5-8-7-7-4-8-5-3-3 4-3 28-13 16-7 29-10 22-5 36-4h37l1 1 2 23 1 2 4 32 3 12 2 10 3-3 3-10 7-15 12-29 10-23 8-16 7-15 5-9 7-14 8-13 7-10 3-6 3-2 13 26v2h3l2-6 10-20h2l3-9 8-16 14-24 6-11 10-17 5-9 4-2v36l4-2 3-5 4-4 7-8 6-7 8-7 4-5z" fill="#FEDC5E"/>
<path transform="translate(1638,1066)" d="m0 0 4 1v31l-2 41-2 22-5 33-10 45-11 37-6 18-13 34-6 12-6 14-10 19-15 27-15 24-7 10-12 17-7 9-9 12-24 28-7 8-4 2v2l-8 7-4 5h-2v2h-2v2l-8 7-11 11-11 9-10 9-17 13-14 10-25-5-50-12-43-13-41-14-27-10-35-14-36-16-30-14-46-23-19-10-16-9-12-6-23-13-27-16-23-14-38-24-9-7v-2l18-7 33-11 36-9 23-4 27-3 35-2h47l46 2 44 1h21l27-1 21-2 19-3 36-9 28-11 22-11 15-9 17-12 13-10 11-9 15-14 21-21 7-8 8-9 6-8 7-8 9-11 7-9 9-10 1-2h2v-2l5-4 7-8 4-2v-2l8-7 10-9 13-10 18-13 18-11 14-8 23-12z" fill="#7A896B"/>
<path transform="translate(303,248)" d="m0 0h68l3 3 11 17 3 4v2h2l5 11-21-1-14-1h-51l-32 3-30 5-19 5-15 5-8 3-8 4-10 4-11 6-13 8-10 7-4 2v2l-5 2v2l-8 7-7 7h-2l-2 4-3 5h-2l-2 4-3 5h-2l-1 4-8 12-8 17-3 7-6 17-6 26-3 18-1 12v38l4 33 7 38 11 40 3 7 4 13 3 9 8 21 3 5 4 10 3 9 4 7 3 8v3h2l4 10 9 17 4 10 9 16 9 17 11 19 7 11 6 11 5 8 10 15 6 10 9 13 14 21 26 36 29 38 11 14 13 16 9 11 12 14 9 11 9 10 9 11 15 16 7 8 24 26 8 8 7 8 67 67 13 12 16 15 24 22 8 7 15 13 11 10 11 9 9 8 11 9 14 12 10 8 16 13 8 6v2l5 2 13 11 6 4 18 14 13 10 22 16 12 9 9 6v2l5 2 9 6v2l5 2 12 8 14 10 15 10 13 9 11 7 15 10 18 11 7 4v2l6 2 5 4 11 6 18 11 14 9 12 6 9 6 11 6 10 6 14 7 18 10 29 15 5 3 4 1v2l12 4v2l5 1 24 12 7 3 19 9 7 3 11 5 12 5 9 4 12 5 14 5 10 5 10 3 12 5 8 3 10 4 11 3 9 3 15 6 12 3 8 3 19 6 7 2 15 4 7 1 8 3 26 6 52 10 30 4 33 3 36 1 31-1 37-4 24-5 21-6 9-3 15-6 5-3 10-4 6-2v-2l10-5 10-7 14-11 16-16 1-2h2l3-6h2l2-5 9-13 6-10 3-7 4-10 5-11 7-28 4-22 1-11v-43l-2-23-8-43-6-24-11-36-8-22v-3h-2l-2-10h-2l-4-11-5-12v-3h-2l-3-8v-3h-2l-4-10-4-9v-2h-2l-8-18-11-21 1-11 7-39 2-2 12 21 6 10 14 28 8 14 5 13 8 15 6 16 8 19 11 29 6 19 2 6 10 38 5 22 5 32 2 20 1 17v29l-2 25-5 30-4 16-5 12-3 10-10 19-3 7h-2l-2 5-1 2h-2l-2 5-5 8-5 5-7 8-2 3h-2l-2 4-5 5h-2l-1 3-6 5h-2v2l-19 13-15 9h-2v2l-5 2h-3v2l-13 5-15 6-30 9-25 5-31 4-20 2-22 1h-16l-26-1-50-5-35-5-50-10-26-6-43-12-29-9-12-3v-2l-9-2-14-4-9-4-10-3v-2l-8-1-9-4-23-9-14-5-12-6-14-5-16-8-12-5-16-8-7-3-11-5-11-6-10-4-14-8-8-3v-2l-6-2-21-10v-2l-7-2-8-5-7-3v-2l-6-2-21-12-10-5v-2l-4-1-9-5-9-6-7-3v-2l-4-1-9-6-11-6-10-7-3-1v-2l-6-2-15-10-10-6-10-7-14-9-23-16-6-3v-2l-4-1v-2l-5-2-13-9-2-1v-2l-5-2-14-10-9-6v-2l-5-2-10-7v-2l-5-2-5-4-6-4v-2l-5-2-3-2v-2l-5-2-4-3v-2l-5-2-15-12-2-1v-2l-5-2v-2l-5-2v-2l-5-2v-2l-5-2v-2l-4-2-12-9-14-12-10-8-28-24-4-3v-2l-4-2-14-12-14-13-8-7-10-9-15-14-12-11-12-12-8-7-55-55-7-8-4-4v-2l-4-2-14-15-8-9v-2l-4-2-11-12-9-11-7-7-9-11-1-3h-2l-9-11-10-12-9-11-1-3h-2l-7-9-3-4v-2h-2l-8-10-10-13-16-21-8-11-10-14-2-5h-2l-8-12-6-8-7-10v-3h-2l-11-17-6-9-12-20-3-4v-2h-2l-6-12-3-4v-2h-2l-8-16-6-10v-2h-2l-7-14-6-11-8-16-10-19-6-12-3-7-4-9-3-8v-3h-2v-5h-2l-2-5v-5h-2l-3-9-3-8v-3h-2l-2-11h-2l-4-14-7-22-8-28-7-34-5-30-3-37v-22l2-24 4-26 4-18 2-5 2-7 11-26 3-8h2v-3h2l2-5 3-6 7-10 10-13 5-6h2l2-4 7-7 8-7 13-10 15-10 8-4 4-1v-2l5-2 18-8 13-5 9-3 11-3 7-2 21-5 30-4z" fill="#FDFDFD"/>
<path transform="translate(1635,1067)" d="m0 0h5l1 2v27l-2 7-15 8-18 12-16 12-16 13-17 16-19 19-6 8-5 5-9 12-14 19-8 13-11 17-16 24-6 7-8 11-11 13-10 11-7 8-13 12-10 9-19 14-17 11-24 12-14 6-31 10-24 5-35 5-41 4-67 5-35 4-42 7-26 6-10 4-6 1-18-10-26-15-15-9-23-14-38-24-9-7v-2l18-7 33-11 36-9 23-4 27-3 35-2h47l46 2 44 1h21l27-1 21-2 19-3 36-9 28-11 22-11 15-9 17-12 13-10 11-9 15-14 21-21 7-8 8-9 6-8 7-8 9-11 7-9 9-10 1-2h2v-2l5-4 7-8 4-2v-2l8-7 10-9 13-10 18-13 18-11 14-8z" fill="#A7B59D"/>
<path transform="translate(1401,594)" d="m0 0 4 2 8 7 3 1 5 5 10 8-2 5-9 17-6 13-7 23-5 22-2 11-1 11v48l3 27 6 30 7 27 11 32 11 25 5 10 2 1v-41l2-33 3-42 4-32 4-16 7 5 8 10 5 4v-10l7-60 3-24 1-3 4 2 2 4 4 2 2 5h2l9 12v2l3 1 3 5 4 5 10 14 8 12v2h2l5 9 8 13 1 2-1 9-7 28-5 19-4 11-3 12-15 44-14 35-16 36-10 21-12 22-4 7-3-1-3-9-4-17-8-26-9-20-10-19-13-22-14-19-9-10v-2h-2l-7-8-10-10-8-7-12-10-11-8-15-10-13-8-19-9-12-6-30-11-14-4h-5l2-7 8-16 7-15 5-9 7-14 8-13 7-10 3-6 3-2 13 26v2h3l2-6 10-20h2l3-9 8-16 14-24 6-11 10-17 5-9 4-2v36l4-2 3-5 4-4 7-8 6-7 8-7 4-5z" fill="#F18F42"/>
<path transform="translate(535,1079)" d="m0 0 8 2 5 4v2l4 2 14 12 14 11 10 5 9 3v2h5v2h3v-2h2v-2h2l1-3 6 2 4 2h20l9 2 2 1h9l10 2 5-2h13l5-2h5v3h5l6-5 3 3 7 3 10 1 2 3 8-1v2l12 1 1-2 6 1 4-2 6 1 1-3 5 1 2 1 4-2 6 1 9-2 8 1 10 3h2v-2l4 1 8 6 5 1v-5l2 2-2-11-1-13-2-12-3-9-1-8 2-1v3h2l4 13 3 7 3 9 7 20 4 10 7 15v3h2l9 19 13 23 9 14v3h2l11 16 12 16 5 7 5 5 7 8v2h2l7 8 14 14v2l-25 6-33 10-30 12-12 6-11 4-4 2h-5l-15-10v-2l-5-2-11-8-13-9v-2l-4-1v-2l-4-1v-2l-5-2-2-1v-2l-5-2-4-3v-2l-5-2-17-13-14-11-10-8-14-11-13-11-3-2v-2l-5-2-9-8-11-9-11-10-11-9-14-13-11-9-9-9-8-7-11-10-4-4v-2l-4-2-11-12-31-31v-2l-4-2v-2l-4-2z" fill="#F9C265"/>
<path transform="translate(712,1484)" d="m0 0 4 1 16 12 24 16 14 10 15 10 11 7 33 22 21 13 18 11 25 15 24 14 18 10 23 13 26 14 19 10 46 23 20 9 10 5v2l-25 1-2 1h-60l-1-1-23-1-40-5-39-7-25-6-25-7-35-12-34-14-26-12-19-10-21-12-16-10-12-8-17-12-16-12 1-6 11-15 10-14 11-14 11-13 7-8 9-10z" fill="#7A896B"/>
<path transform="translate(1685,1246)" d="m0 0h2l9 27v4h2l4 17 9 35 5 30 2 26v30l-2 22-5 27-4 9-3 9-5 13h-2l-1 4-7 12-7 10-8 10h-2l-1 3-2 1-1 3h-2v2h-2v2l-15 11-15 10-12 7-10 5-34 11-24 5-28 4-13 1-26 1h-13l-1-2 4-5 11-9 18-18h2l2-4 13-13 1-2h2l2-4 5-6h2l2-4 7-8 5-7h2l2-5h2l2-4 5-7h2l1-4h2l1-4h2l4-8h2l2-5 2-4h2l2-4 6-10 7-10 11-18 12-21 10-19 8-16 2-6h2l2-9h2l3-11 5-10 10-26 7-23 4-10 8-30z" fill="#FDFDFD"/>
<path transform="translate(1633,1182)" d="m0 0h1l-1 12-10 45-11 37-6 18-13 34-6 12-6 14-10 19-15 27-15 24-7 10-12 17-7 9-9 12-24 28-7 8-4 2v2l-8 7-4 5h-2v2h-2v2l-8 7-11 11-11 9-10 9-17 13-14 10-25-5-50-12-43-13-30-10v-1l14-3 33-7 23-6 12-3 30-10 25-11 19-10 11-7 14-10 14-11 16-15 7-7 18-22 10-14 13-20 9-16 8-14 11-23 14-29 10-19 11-18 12-17 9-12 12-14 6-8 26-26 9-7z" fill="#627361"/>
<path transform="translate(424,1242)" d="m0 0 4 2 6 7 16 14v2l4 2 10 10 8 7 10 9 5 4 5 5 9 8 5 5 14 12v2l5 2 1 3 4 2 11 9 5 5 3 2v2l4 2v2l5 2 8 7 9 7v2l4 2 7 5v2l4 2 9 7 3 2v2l4 2 16 13 17 13 18 14 12 9 6 5-1 4-13 14-7 9-7 8-8 10-9 12-11 15-10 14-4-1-15-14-8-7-5-5-5-6v-2l-3-1-7-8-9-10-5-6v-2h-2l-11-14-14-18-26-39-8-14-9-16-5-9-9-17-4-10-4-7-4-11-10-24-12-36-6-20z" fill="#FEDB5E"/>
<path transform="translate(712,1484)" d="m0 0 4 1 16 12 24 16 14 10 15 10 11 7 24 16v3l-10 8-24 24-7 8-4 5h-2l-2 5-10 11-8 10-4 8h-5l-19-10-21-12-16-10-12-8-17-12-16-12 1-6 11-15 10-14 11-14 11-13 7-8 9-10z" fill="#A7B59D"/>
<path transform="translate(1597,857)" d="m0 0h2l5 12 12 36 7 24 9 42 4 23 2 15v8l-6 4-24 11-10 5-17 9-13 8-11 7-15 10-15 12h-2l1-5 8-20 13-36 17-50 10-32 9-31 11-41z" fill="#F18F42"/>
<path transform="translate(1582,495)" d="m0 0 4 1 6 9v13l-4 59-5 45-7 48-1 10h-3l-10-12-6-8-10-12-9-11-4-5-9-9 1-5 2-9 4-10 4-11 6-15 4-8 6-16 8-14 2-5 3-7h2l1-4 12-19z" fill="#FDFDFD"/>
<path transform="translate(847,858)" d="m0 0 4 1 7 8 8 9 11 16 6 10 6 11 8 18 3 4 2-1-3 11-9 25-7 25-4 17-2 15-2 12-2 23-2-4-3-7-4-15-9-42-4-26-2-17-2-31z" fill="#F18F42"/>
<path transform="translate(980,1651)" d="m0 0 5 2 64 32 20 9 10 5v2l-25 1-2 1h-60l-1-1-23-1-40-5 4-1v-2l5-5 16-13 14-13 9-7h2z" fill="#627361"/>
<path transform="translate(989,402)" d="m0 0h66l31 2v5l-8 4-19 1h-20l-23 1h-15l-11 3h-10v-1l5-1-21-2-12 3-2 1-25 1-12 3-10 1-11 2-9 1-5 1-1 2-6-2-8 2h-3l-5 1-6-1-4 4 1 2-2 2h-5l2-3h-2l-1-2-5 2-3 4h-10l-6 4-5-3 1-4 16-5 7-2 34-9 46-9 27-4 32-3zm-114 27 2 1z" fill="#122C40"/>
<path transform="translate(764,514)" d="m0 0h6v2l2 1-35 17-26 14-24 15-19 13-18 13-16 13-10 8-14 12-8 8-8 7-9 9h-2l-2 4-13 13-7 8-9 10-9 11-11 14-12 16-11 16-9 14-8 13-12 21-4 5-2-5 1-4 8-16 9-16 5-8 3-5 5-5 2-3-1-2h2l2-4 4-4 1-4 2-2 2-1 1-3 4-4 6-9h2l2-5 10-11 1-5 4-2 5-6 5-4 5-6h2l2-4 5-6h2l2-4 4-2 2-4h2l2-4 4-3 6-5 1-3 6-4 11-11h2l1-3h2v-2h3v-2l11-8v-2l6-3 6-4h2l1-4 8-6 4-2 10-8h4v-2h3v-2h2v-2l5-2h3v-2l5-3 12-7h3v-2l8-1 2-4h2v-2l8-2v-2l11-4 11-6 5-2 8-3z" fill="#08233B"/>
<path transform="translate(424,1242)" d="m0 0 4 2 6 7 16 14v2l4 2 10 10 8 7 4 4-2 1 2 4h2l3 5v4h2v2h2v2h2l5 8v2h2l3 5 5 7-1 5-9 2-3-1v-2l-8 2-5-2-1 3-4-1-5-5-7-10-7-9-5-7-2-1 1 4-2-1-15-45-5-17z" fill="#F9C165"/>
<path transform="translate(1376,449)" d="m0 0 2 1-8 14-6 11-5 9 13-6 24-8 30-7 24-5 24-3 27-2h9l-1 2-22 5-38 10-10 3-9 3-23 8-7 3-8 4-7 2-10 4h-6l-2-1v-2l-6-2-28-14 1-3h2v-2l6-3 11-7 7-4 9-6z" fill="#FCFCFB"/>
<path transform="translate(451,994)" d="m0 0 5 2 14 16v2h2l7 8 22 24 14 15 11 11v2h2l4 4v2l4 2 4 4v2h2v2h2l6 7 8 7 23 23 8 6 7 8 24 22 10 9 8 7 11 10 11 9 10 9 11 9 10 8 11 9 9 8 12 9 12 10 26 20 8 5v2l4 2 5 3v2l5 2 2 1v2l4 1v2l4 1v2l4 2 10 7 13 9 2 1v2l4 2 13 8v2l-5-1-9-4-1-4-7-3-11-8-4-2-1-4-5-1-5-5-6-3-10-9-5-2v-2l-5-1-3-4-5-2-5-6-8-5-3-1v-2l-4-2-3-3v-2l-5-2-4-3-4-1-4-5v-2l-4-2-7-4-1-2-4-2v-2l-4-1-5-6-10-8-5-2-1-3-3-1v-3l-3-1v-2l-5-2-6-4-1-2-5-3-5-4v-2l-3-1-5-5v-2h-3l-1-4-5-1-1-3h-3l-1-3-8-5-6-7-6-5-6-7-2-1v-2l-6-2-6-5-5-5-9-8-6-7-2-1v-2l-4-2-4-4v-2h-2v-2l-4-2-4-4v-2h-2l-4-4v-2h-2v-2h-2l-6-8v-3h-2v-2h-2l-7-8-5-4-5-6-11-9-11-14-4-4v-3h-2v-2h-2l-1-4-3 1-6-7-4-4-4-2-3-9-2-1v-2h-2l-3-4z" fill="#08233B"/>
<path transform="translate(1182,486)" d="m0 0 2 1 1 3h-2l-2 5-5 11-5 16-1 2h-2v7l-3-1-1 5-4 4-8 16-1 4 6-2 5-7 4-1v-2l12-9 6-3 1-2 8-1v-2l5-4h2l3-4 10-8 10-6 6-1 3 3-15 11-24 18-16 13-9 7-16 13-12 11-3 1 1-7 11-29 19-39 9-16z" fill="#08233B"/>
<path transform="translate(1545,493)" d="m0 0 2 1-5 4-4 3h-2v2l-9 6-3 1v2h-2l-1 3-11 9-16 15-7 7h-2l-2 4-8 8-7 9-4-2-7-6v-2l-6-2-2-4 10-7h2v-2l5-3h2v-2l13-9 5-3 9-6 11-6 11-7 21-10z" fill="#FBFBFA"/>
<path transform="translate(1537,836)" d="m0 0h2v4l3 2-3 6-4-1 1 4 2-2v8l-5 14-5 19-2 5-2 7-2 2-4 13-3 3-3 9-1 2-3 5v3h-2v2h-2l-2 7-2 3-2 6-3 5-5 12-4 5-2 4-2 5-2 1-2 4h-2l-1 4-3 1 1-5 11-21 15-33 13-31 12-32z" fill="#08233B"/>
<path transform="translate(867,1046)" d="m0 0h1l3 11 3 8 6 20 4 8 4 10 4 9 11 23 6 9 10 17 7 10 12 16 12 14 12 13 13 13 11 9 6 5-1 3-4-2v-2l-6-1-17-17v-2l-4-2v-2h-2v-2l-4-2-3-4v-2h-2v-2h-2v-2l-2-1-3-3v-2l-4-2-3-3v-3l-4-2-6-8-10-16-5-5v-6l-3-1-5-7-3-5-10-19-5-10-3-9-2-2-2-6-3-6v-5l-4-5-2-7-2-4v-6l1-3-2-2z" fill="#102A3E"/>
<path transform="translate(834,247)" d="m0 0h33l29 2-3 3-11 1-2 1h-6l-1-4-3 2-8 1v1l-44 1-9 2-21 2-9 2-12 1-4-1-1 2-7 2h-13l-6-2-2-3 66-10 18-2z" fill="#1B3444"/>
<path transform="translate(887,836)" d="m0 0h7l16 5 29 11 16 8-3 1-1 5-9 8-3 2-2 4-7-8-11-11-11-9-16-12-5-3z" fill="#F18F42"/>
<path transform="translate(1699,1176)" d="m0 0 4 5 8 13 14 25 2 7h2l9 16 5 11 9 17 4 9 11 23 13 30 1 7-1 2 3 8v5l2 4-2 5-2-3-9-27-13-33-7-16-4-10-6-12-5-11-13-25-6-12-6-10-6-11-7-13-2 1 1-4z" fill="#27404B"/>
<path transform="translate(1613,1752)" d="m0 0h15l-3 3-12 3-8 3-21 3-12 3-13 1h-35l-13-1-5-2v-1l5-1h40l4-3 35-4z" fill="#08233B"/>
<path transform="translate(906,1305)" d="m0 0h9v2l-16 5-30 12-12 6-11 4-4 2h-5l-15-10v-2l-5-2-6-4v-3h-2l-4-5-2-2 4-1 15 9 7 5 5 5 4 2h7l15-7 24-9 15-5 4-1z" fill="#FAD35D"/>
<path transform="translate(453,1328)" d="m0 0 3 4 3 7 5 10 3 7 8 17 6 10 8 14 12 20 15 22 10 14 8 10-1 3-7-6-1-4-3-2v-2h-3l-6-10v-2l-3-1-5-8-3-3-4-7v-2h-2l-7-12-2-7-4-2-5-9-3-7-11-22-6-13-2-5-1-5h-2l-1-7z" fill="#102A3E"/>
<path transform="translate(298,284)" d="m0 0h57l3 2v2l-6 1h-8l-10 1-22 3h-10l-11-2-9 2h-5l-5-1-5 1h-5v-3-1h16l1-3z" fill="#08233B"/>
<path transform="translate(628,845)" d="m0 0h4l-1 4-1 3-16 9-23 14-15 10h-3l2-5 9-14 4-4 1 3 5-1 1-2 10-3 5-4h2v-2h2v-2l8-3h3v-2z" fill="#08233B"/>
<path transform="translate(1231,613)" d="m0 0 3 1-4 7v4h-2l-2 4h-2l-1 6-4 10h-2l1 5-1 2h-2l-1 8-4 9-1 2h-2l-1 9-3 6-2 9-2 5-2 13-2 4h-2l1-13 5-21 10-30 10-21 7-12z" fill="#08233B"/>
<path transform="translate(735,889)" d="m0 0 2 2-3 5h-3l-1 4-8 14-2 13-3 4h-2l-1 6-2 3-1 9-3 4-3 15-3 5-1 5h-1v-10l3-17 5-17 5-12 9-16 9-12z" fill="#08233B"/>
<path transform="translate(745,795)" d="m0 0 10 1 19 8 4 4-9 3-23-1-5-5-2-3v-5z" fill="#08233B"/>
<path transform="translate(1431,617)" d="m0 0 2 2-4 10-3 5-4 5 1 2-3 10-2 4-1 4h-2l1 4-5 16-1 1-1 8-4 13v3h-4v-7l6-26 7-21 13-27z" fill="#08233B"/>
<path transform="translate(993,1244)" d="m0 0 4 1 15 11 17 11 26 14 2 1v2h-8l-6-3-7-2-12-7-10-8-7-5-3-3-8-4-3-5z" fill="#0C273C"/>
<path transform="translate(1457,284)" d="m0 0 1 2 9 3 7 2v2l6 1 10 4 5 1v2l8 1 11 5 8 4 1 4h-14l-14-9-5-2v-2l-10-3v-2l-6-2-9-4-10-3 2-1z" fill="#E7EAE5"/>
<path transform="translate(872,1180)" d="m0 0 2 1v2h2l1 5h2l6 12 4 5 5 6v2l2 1 1 2-1 2 5 3v3h2v3h2l4 9 8 8 1 4 3 1-1 2h2l2 5 5 5 2 4-4-2-3-3v-2l-4-2-10-14-11-15-5-7v-2h-2l-6-11-8-13-6-11z" fill="#08243B"/>
<path transform="translate(424,1242)" d="m0 0 4 2 6 7 8 7 2 6-5 7h-5l-3-3-7-23z" fill="#FCD15B"/>
<path transform="translate(1515,1461)" d="m0 0 1 2-3 6-5 5-6 7-8 12h-2l-2 4-9 8-3 3-8 7-9 10-3 3h-2v2l-2-1 1-3h2v-2h2l2-4 8-8h2v-2l8-7 11-13 9-11 11-13z" fill="#08243B"/>
<path transform="translate(1699,1176)" d="m0 0 4 5 8 13 14 25 2 7h2l7 13-1 2-2-1-1 2-9-19-4-6-5-10-13-23-2-4-2 1 1-4z" fill="#384F54"/>
<path transform="translate(512,1532)" d="m0 0 7 6 6 7 17 17 7 6 7 8 9 8v2l4 2 6 5 5 5v2l3 1-3 1-13-12-8-7-8-8-8-7-4-5-6-5-7-8-14-15z" fill="#1D3644"/>
<path transform="translate(1728,234)" d="m0 0 18 1 2 1v2l-13 3-4 1-20 2-1-2 5-2h-7l3-3z" fill="#122C40"/>
<path transform="translate(906,1382)" d="m0 0 8 4 14 9 21 13 29 17 21 12 5 3-3 1-16-9-8-4-14-9-11-6-9-6-10-5v-2l-5-2-22-14z" fill="#08233B"/>
<path transform="translate(809,872)" d="m0 0v3l-10 15-11 18-3-1 2-4-1-4 3-2 2-6 1-2 4-5 2-6 3-1 1-3 6-1z" fill="#08233B"/>
<path transform="translate(1376,368)" d="m0 0h31l6 2 11 1-2 3-6-1-15 1-10-1h-7l-9-2z" fill="#08233B"/>
<path transform="translate(956,1043)" d="m0 0h4l-1 5-6 16-2 5h-2l-1-2v-20l2-3 4 1z" fill="#0F2A3E"/>
<path transform="translate(1273,1229)" d="m0 0 2 1h-3zm-3 2 2 1-4 5-7 3-2-1zm-13 9 2 1-5 5-5 2-4 5-10 5-2 2-5 2-4 4-9 2 4-5 24-14z" fill="#0F2A3E"/>
<path transform="translate(917,716)" d="m0 0 2 2-22 13-11 7-4 2h-5l2-5 20-11 17-7z" fill="#BC854D"/>
<path transform="translate(934,690)" d="m0 0 3 1-2 1 2 1v2l-17 8-10 5 1-5v-1l2-4 4-2h4v-2l4-1 3 1v-2z" fill="#08233B"/>
<path transform="translate(1390,280)" d="m0 0h22l3 1h11v1l-11 2-1 1-16 1-4 1-5-1 2-1-4-1-1-3z" fill="#08233B"/>
<path transform="translate(1196,828)" d="m0 0 2 1 6-1 1 3h2l-1 6-3 10-3 2-2-5-2-10z" fill="#09253B"/>
<path transform="translate(1635,581)" d="m0 0 3 2-1 2-2 44-4 43-3 26h-1v-9l5-51 2-34v-22z" fill="#84937B"/>
<path transform="translate(883,778)" d="m0 0 4 1 1 3-20 11-3 1-1-4 8-8z" fill="#08233B"/>
<path transform="translate(488,261)" d="m0 0 12 2 30 8 13 4v1l-10-1-28-7-8-1-1 2-4-4v-2z" fill="#909E83"/>
<path transform="translate(677,1599)" d="m0 0 5 2 17 11 26 15 13 7-2 1-19-9v-2l-5-2-12-6-14-8-3-2v-2l-6-3z" fill="#08233B"/>
<path transform="translate(1328,641)" d="m0 0 2 1-1 2 4-1-3 9-8 13-3-1 1-6 4-10z" fill="#08243B"/>
<path transform="translate(1264,700)" d="m0 0 3 1h3l-6 12-6 9h-2v-3h-2l2-6 2-3 3 1v-3l1-5z" fill="#08233B"/>
<path transform="translate(631,810)" d="m0 0h2l-2 5-3 1-2 4-9 9-2 3h-2l-2 4h-2l-2 4-3-1 8-10z" fill="#08233B"/>
<path transform="translate(937,792)" d="m0 0 19 1 23 4 17 5 2 2-6-1-6-2-20-3-1-1-29-3z" fill="#08233B"/>
<path transform="translate(1733,1240)" d="m0 0 5 2 5 11 6 11v2l-4-1-1 2-8-18-3-5z" fill="#2A434C"/>
<path transform="translate(847,717)" d="m0 0 2 2-7 11-4 8-2 9h-2v2l-5 2 2-6 8-16 7-11z" fill="#08233B"/>
<path transform="translate(1083,938)" d="m0 0 3 1 1 2 2-2 2 1v-2h4l2 13v5l-5-5-5-7-4-4z" fill="#0B263C"/>
<path transform="translate(1388,599)" d="m0 0 6 1-2 4-8 7-7 8-5 5v-3l4-6 4-4 2-5h2l2-5z" fill="#08233B"/>
<path transform="translate(910,469)" d="m0 0 7 1-1 3-6 1-13 3-12 2-1-3 3-1 1-2h2v2l7-2 4-1h2z" fill="#08243B"/>
<path transform="translate(1545,810)" d="m0 0h2l2 3 1 2-5 15-1 2-5 1 1-7z" fill="#08233B"/>
<path transform="translate(988,731)" d="m0 0 12 3v3l8 1v1l-29 1 4-4 1-3z" fill="#08233B"/>
<path transform="translate(908,1236)" d="m0 0 7 6 3 4v2l3 1-1 2h2l2 5 5 5 2 4-4-2-3-3v-2l-4-2-10-14-3-5z" fill="#0A253C"/>
<path transform="translate(810,748)" d="m0 0 4 4 8 17v2l-9-1-2-3 2-2h3v-5h-2v-2l-4-1-1-8z" fill="#08233B"/>
<path transform="translate(1680,671)" d="m0 0h1l3 76v3l-2-1-2-54z" fill="#819078"/>
<path transform="translate(1057,1284)" d="m0 0h23l8 1 21 1-2 2h-24l-11-1-15-1z" fill="#08233B"/>
<path transform="translate(950,708)" d="m0 0h22v3l-3 2-12-1-11-1v-2z" fill="#08233B"/>
<path transform="translate(1649,496)" d="m0 0 6 2 4 2 4-1 8 8v3l-7-2-5-2v-2l-4-2-6-5z" fill="#1F3846"/>
<path transform="translate(1699,1176)" d="m0 0 4 5 8 13 4 7-1 2-2 1-6-11-7-13-2 1 1-4z" fill="#788873"/>
<path transform="translate(907,709)" d="m0 0 1 2 6 1 4 4-6 4-15 6-2-1 1-3 5-2 8-1 2-4-5-4z" fill="#08233B"/>
<path transform="translate(926,970)" d="m0 0 5 2-1 4-5 5-1 3-3 1-2-4v-8l2 1v2h3l1-5z" fill="#102A3E"/>
<path transform="translate(1191,734)" d="m0 0 3 3v19l-3 6h-1v-18z" fill="#08233B"/>
<path transform="translate(625,1518)" d="m0 0 4 1-2 5-2 1-4 7-5 5-3 1v-3z" fill="#112C3F"/>
<path transform="translate(894,250)" d="m0 0 10 1-1 4-7 1-13-1-1-3 11-1z" fill="#08233B"/>
<path transform="translate(1541,1128)" d="m0 0 2 1-34 34v-3l4-5h2v-2l5-4 7-8 4-2v-2l8-7z" fill="#85947C"/>
<path transform="translate(1647,496)" d="m0 0 7 4 5 4v2l5 2 2 4-6-3h-5l-8-10z" fill="#08233B"/>
<path transform="translate(873,249)" d="m0 0h23l-3 3-11 1-2 1h-6z" fill="#143042"/>
<path transform="translate(1530,1069)" d="m0 0 5 2 2 4-10 8h-2l1-5z" fill="#F1B654"/>
<path transform="translate(663,843)" d="m0 0 3 3 1 4-8 5-4-1 3-7 2-2h3z" fill="#08233B"/>
<path transform="translate(552,1250)" d="m0 0 7 6 10 9 6 4 5 5v2l4 2-3 1-15-14-11-9-3-3z" fill="#1E3744"/>
<path transform="translate(889,724)" d="m0 0 5 2v2l-13 7-2-1 2-5 4-4z" fill="#08233B"/>
<path transform="translate(1635,581)" d="m0 0 3 2-1 2-2 44-1 6h-1v-12l1-19v-22z" fill="#7A8A71"/>
<path transform="translate(942,1283)" d="m0 0 6 2 4 4-1 4h-8l-1-4 1-4z" fill="#FDD55C"/>
<path transform="translate(1273,1229)" d="m0 0 2 1h-3zm-3 2 2 1-4 5-7 3-2-1zm-13 9 2 1-5 5-5 1v-2z" fill="#162F41"/>
<path transform="translate(1463,757)" d="m0 0 3 1 7 8 3 2v6l-7-6-7-9z" fill="#08233B"/>
<path transform="translate(453,1328)" d="m0 0 3 4 3 7 3 6-1 2-5-5-1-5h-2l-1-7z" fill="#142E40"/>
<path transform="translate(1200,1273)" d="m0 0 2 1-3 6-3 1-2-1-3 1-1 2-5 1 1-4z" fill="#0F2A3E"/>
<path transform="translate(719,826)" d="m0 0v3l-5 10v2l-7 2 1-5h2l2-4z" fill="#08233B"/>
<path transform="translate(1265,342)" d="m0 0 2 1-4 4 3 2v3l-8 2h-5l5-5z" fill="#2E474D"/>
<path transform="translate(1449,1532)" d="m0 0h3l-2 4-6 5-6 7h-3l2-4z" fill="#08243B"/>
<path transform="translate(1713,1202)" d="m0 0 3 1 8 14-1 2h-3l-6-12z" fill="#4B625E"/>
<path transform="translate(515,268)" d="m0 0 8 1 20 6v1l-10-1-18-5z" fill="#96A48A"/>
<path transform="translate(757,865)" d="m0 0 2 2-6 5-4 4-1 3-3 1-1 3-3 2-1 3h-3l2-4 9-10z" fill="#08233B"/>
<path transform="translate(701,776)" d="m0 0h7l1 2-13 2h-9l4-2zm-17 4 3 1-1 2-5-1z" fill="#08233B"/>
<path transform="translate(1800,236)" d="m0 0 7 1v2l-17 6 2-5 1-1h6z" fill="#253E48"/>
<path transform="translate(860,1158)" d="m0 0 3 1 1 5h2l4 9 2 6-3-1-9-19z" fill="#08233B"/>
<path transform="translate(1461,1014)" d="m0 0 4 1-2 6-5 7-4-1 6-10z" fill="#132E40"/>
<path transform="translate(881,688)" d="m0 0 3 1v2l-7 2-5 4-8 4-2-1 10-7z" fill="#08233B"/>
<path transform="translate(1e3 1441)" d="m0 0 6 2 18 10 1 2-5-1-12-7-7-4z" fill="#08243B"/>
<path transform="translate(881,1318)" d="m0 0 3 1-4 4h-6l-4 4-5-1-1 2v-3z" fill="#173141"/>
<path transform="translate(67,320)" d="m0 0 2 1-7 8h-2l-2 4-4 2v-3l6-7 1-2h4z" fill="#08233B"/>
<path transform="translate(484,1188)" d="m0 0 4 2 9 9 2 1v2h2l2 5-8-6-4-5-7-6z" fill="#213A45"/>
<path transform="translate(245,913)" d="m0 0 3 1 10 14 3 4v2l-3-1-12-17z" fill="#203845"/>
<path transform="translate(325,1016)" d="m0 0 3 2v2l3 1 9 12-1 3-9-11-5-6z" fill="#1F3845"/>
<path transform="translate(332,838)" d="m0 0 4 1 7 11 1 4-9-9-1-3-2-1z" fill="#213A47"/>
<path transform="translate(566,1586)" d="m0 0 14 12v2l3 1-3 1-13-12-2-1z" fill="#263E48"/>
<path transform="translate(1195,828)" d="m0 0h1l4 20h2v4h-4l-2-10-1-6z" fill="#B4834F"/>
<path transform="translate(653,832)" d="m0 0 3 1 1 3h5l-3 2-7 1-3-1v-4z" fill="#08233B"/>
<path transform="translate(1190,764)" d="m0 0 2 3 1 8v9h-3z" fill="#08243B"/>
<path transform="translate(1649,496)" d="m0 0 6 2 6 4 1 2 4 2-4 2-3-2v-2l-4-2-6-5z" fill="#8D9B86"/>
<path transform="translate(918,1305)" d="m0 0h4l-1 3-7 3h-8l-1-2z" fill="#122C3F"/>
<path transform="translate(1216,1265)" d="m0 0m-2 1 2 1-2 4-8 2v2h-5l1-3z" fill="#0A253B"/>
<path transform="translate(432,970)" d="m0 0 7 6 5 6v2l-4-1v-2l-5-2z" fill="#08233B"/>
<path transform="translate(416,1119)" d="m0 0 7 6 5 5v2l4 2-1 3-11-11-4-5z" fill="#253D47"/>
<path transform="translate(1710,876)" d="m0 0 2 1-5 10h-3v-7l5-3z" fill="#193443"/>
<path transform="translate(575,1513)" d="m0 0 5 3 6 8-6-1-5-6z" fill="#0C273C"/>
<path transform="translate(727,725)" d="m0 0h6l2 2v3l4 1-1 2-13-6z" fill="#08233B"/>
<path transform="translate(1292,699)" d="m0 0 5 4 3 3-1 5h-3l-4-9z" fill="#08243B"/>
<path transform="translate(1192,794)" d="m0 0 2 2v16h-2l-1-16z" fill="#243C47"/>
<path transform="translate(1176,515)" d="m0 0h3l1 4-3 1-2-1 1 3h-2l-1 5h-2v2l-3-1 4-5z" fill="#08233B"/>
<path transform="translate(1733,352)" d="m0 0 5 2 4 1h3v2l-9 1-2-1h-2l-2-4z" fill="#08233B"/>
<path transform="translate(490,1507)" d="m0 0 4 2 9 11v2l-4-2-9-12z" fill="#1E3744"/>
<path transform="translate(987,866)" d="m0 0 5 2 6 5 1 4-5-2-5-6-2-1z" fill="#173141"/>
<path transform="translate(1364,625)" d="m0 0h7l-4 7-4 2z" fill="#08233B"/>
<path transform="translate(1989,503)" d="m0 0 5 2 1-2 3 5v2h2v2l-5-2-8-5z" fill="#506561"/>
<path transform="translate(853,1140)" d="m0 0h2l4 10 1 5h-2l-5-10z" fill="#0A253C"/>
<path transform="translate(732,776)" d="m0 0 12 1 8 2-4 2-10-2-8-1z" fill="#08233B"/>
<path transform="translate(1638,296)" d="m0 0 2 1-7 14-3 1 3-9 4-2-1-3h2z" fill="#08233B"/>
<path transform="translate(1429,1758)" d="m0 0h13l-1 3-4 2-6-2-2-1z" fill="#08233B"/>
<path transform="translate(586,1526)" d="m0 0 5 1 6 6-1 3h-2l-6-7-2-1z" fill="#0F293E"/>
<path transform="translate(906,1305)" d="m0 0h9v2l-10 3h-2v-4z" fill="#F7C95A"/>
<path transform="translate(943,1298)" d="m0 0 4 1-1 2-4 1-1 1h-8l-1-2z" fill="#183242"/>
<path transform="translate(1733,1240)" d="m0 0 5 2 3 8h-2v-2l-3 1-3-5z" fill="#2F484E"/>
<path transform="translate(716,1070)" d="m0 0 4 1v6h3v7l-3-3-4-9z" fill="#08233B"/>
<path transform="translate(766,930)" d="m0 0 4 1 1 4-1 3 2 1-1 4h-2l-2-6 1-6z" fill="#08233B"/>
<path transform="translate(1019,881)" d="m0 0h1v16h-3v-3l1-12z" fill="#08233B"/>
<path transform="translate(312,803)" d="m0 0 4 5 3 5v3h-2v-3l-4-2-2-6z" fill="#1D3645"/>
<path transform="translate(981,708)" d="m0 0 10 1 6 2v1h-8l-6-1h-5z" fill="#08233B"/>
<path transform="translate(1672,511)" d="m0 0h5l1 3 4 2 3 2-1 3-12-9z" fill="#31484F"/>
<path transform="translate(570,1266)" d="m0 0 5 3 5 5v2l4 2-3 1-12-11z" fill="#223A46"/>
<path transform="translate(861,701)" d="m0 0 2 2-6 5-4 5-2 3h-2l2-5z" fill="#08233B"/>
<path transform="translate(518,1220)" d="m0 0h2v2l4 2 3 2v2h2v2h2v2l-4-2-8-7z" fill="#183242"/>
<path transform="translate(1536,394)" d="m0 0 5 2 9 6-3 1-8-3v-3z" fill="#819078"/>
<path transform="translate(488,261)" d="m0 0 12 2-1 3-2 1-1 2-4-4v-2z" fill="#7F8F75"/>
<path transform="translate(661,1588)" d="m0 0 5 2 8 6-2 1-5-2-6-5z" fill="#08233B"/>
<path transform="translate(902,1310)" d="m0 0 3 1-1 2h-2v2l-7 1-1-3z" fill="#152F40"/>
<path transform="translate(665,1346)" d="m0 0 4 2 5 4 5 5h-3l-11-9z" fill="#1E3744"/>
<path transform="translate(500,1311)" d="m0 0 4 2 7 5 1 4-4-2-7-6z" fill="#132D40"/>
<path transform="translate(827,1064)" d="m0 0 4 5 1 8-2 1-3-10z" fill="#08233B"/>
<path transform="translate(964,680)" d="m0 0h6l2 2-8 3-4-1h3z" fill="#08233B"/>
<path transform="translate(1635,581)" d="m0 0 3 2-1 2-1 22h-1l-1-25z" fill="#97A68D"/>
<path transform="translate(534,216)" d="m0 0 7 6 4 4-1 3-8-8z" fill="#284048"/>
<path transform="translate(635,1505)" d="m0 0 3 1v2h-2l-2 4-6 4 2-4z" fill="#173041"/>
<path transform="translate(526,1457)" d="m0 0 4 1 4 5-1 3-7-6z" fill="#0E293D"/>
<path transform="translate(1183,1281)" d="m0 0 2 1-1 2h-2v3l-7 2 2-5z" fill="#142E40"/>
<path transform="translate(1273,1229)" d="m0 0 2 1h-3zm-3 2 2 1-4 5-3 2-3-1 5-5z" fill="#142E40"/>
<path transform="translate(1708,1194)" d="m0 0h3l4 7-1 2-2 1-4-7z" fill="#6A7C6C"/>
<path transform="translate(350,1047)" d="m0 0 4 2 7 8v2l-4-2-7-9z" fill="#1F3845"/>
<path transform="translate(905,917)" d="m0 0 2 4-2 4-2 9h-1v-8l1-7z" fill="#CB884A"/>
<path transform="translate(283,757)" d="m0 0 4 1 4 8-1 2-5-5v-4h-2z" fill="#28414C"/>
<path transform="translate(762,751)" d="m0 0 5 1 3 1 2 4-8-2-3-3z" fill="#08233B"/>
<path transform="translate(577,568)" d="m0 0 2 1zm-2 1 2 1-2 5-3 2h-3l2-4z" fill="#112C3F"/>
<path transform="translate(468,1172)" d="m0 0 3 1 7 8 2 1-1 3-11-11z" fill="#112B3F"/>
<path transform="translate(268,944)" d="m0 0 3 1 6 9-1 3-8-11z" fill="#1D3644"/>
<path transform="translate(1501,452)" d="m0 0h12l6 1-2 2h-8v-1l-8-1z" fill="#7E8E77"/>
<path transform="translate(1713,1202)" d="m0 0 3 1 3 5v4h-2l-4-6z" fill="#3E5657"/>
<path transform="translate(1065,859)" d="m0 0h3l5 9h-3l-1-3-3-1z" fill="#142F40"/>
<path transform="translate(1661,655)" d="m0 0 4 8 2-2-1 6-3 1-2-8z" fill="#85947B"/>
<path transform="translate(1566,281)" d="m0 0 5 5 4 6-2 1-2-1-5-9z" fill="#233C47"/>
<path transform="translate(1618,1026)" d="m0 0h3v2h-4l-1 3-8 1 4-3z" fill="#08233B"/>
<path transform="translate(894,831)" d="m0 0h4l-1 4-7 1-4-2h7l-2-2z" fill="#08233B"/>
<path transform="translate(546,1480)" d="m0 0h2l5 7-3 1-3-2 1-2h-2z" fill="#293C45"/>
<path transform="translate(1286,1220)" d="m0 0m-2 1 2 1-3 5-7 1 4-4z" fill="#122C3F"/>
<path transform="translate(391,1092)" d="m0 0 7 6 2 4-4-2-5-5z" fill="#1C3543"/>
<path transform="translate(380,1080)" d="m0 0 7 5 2 5-4-2-5-6z" fill="#233B46"/>
<path transform="translate(319,817)" d="m0 0 4 2 3 6-5-2-2-3z" fill="#1A3444"/>
<path transform="translate(1363,475)" d="m0 0 2 3v4l-3 2h-3l2-5z" fill="#314A4E"/>
<path transform="translate(1381,238)" d="m0 0 4 1-2 2 1 2-8-1v-2z" fill="#4E645F"/>
</svg>
